<svg width="28" height="29" viewBox="0 0 28 29" fill="none" xmlns="http://www.w3.org/2000/svg">
<g filter="url(#filter0_d)">
<path d="M2 22.1167V7.11673C2 4.63145 4.01472 2.61673 6.5 2.61673H21.5C23.9853 2.61673 26 4.63145 26 7.11673V22.1167C26 24.602 23.9853 26.6167 21.5 26.6167H6.5C4.01472 26.6167 2 24.602 2 22.1167Z" fill="white" stroke="#F0EAEA"/>
<g filter="url(#filter1_d)">
<path d="M18.466 7.45716L10.114 20.5252L9.51998 20.1652L17.872 7.13316L18.466 7.45716ZM13.66 10.9132C13.66 11.6092 13.498 12.2512 13.174 12.8392C12.85 13.4272 12.406 13.8892 11.842 14.2252C11.29 14.5612 10.69 14.7292 10.042 14.7292C9.20198 14.7292 8.50598 14.4652 7.95398 13.9372C7.40198 13.4092 7.12598 12.6832 7.12598 11.7592C7.12598 11.0512 7.28798 10.4032 7.61198 9.81516C7.93598 9.22716 8.37398 8.76516 8.92598 8.42916C9.48998 8.09316 10.096 7.92516 10.744 7.92516C11.584 7.92516 12.28 8.18916 12.832 8.71716C13.384 9.24516 13.66 9.97716 13.66 10.9132ZM8.90798 10.1752C8.90798 11.1472 9.14798 11.8972 9.62798 12.4252C10.108 12.9412 10.828 13.2532 11.788 13.3612C11.848 13.0372 11.878 12.7432 11.878 12.4792C11.878 11.5072 11.638 10.7632 11.158 10.2472C10.678 9.73116 9.95798 9.41316 8.99798 9.29316C8.93798 9.61716 8.90798 9.91116 8.90798 10.1752ZM17.404 13.6312C18.244 13.6312 18.94 13.8952 19.492 14.4232C20.044 14.9512 20.32 15.6832 20.32 16.6192C20.32 17.3152 20.158 17.9572 19.834 18.5452C19.51 19.1332 19.066 19.5952 18.502 19.9312C17.95 20.2672 17.35 20.4352 16.702 20.4352C15.862 20.4352 15.166 20.1712 14.614 19.6432C14.062 19.1152 13.786 18.3892 13.786 17.4652C13.786 16.7572 13.948 16.1092 14.272 15.5212C14.596 14.9332 15.034 14.4712 15.586 14.1352C16.15 13.7992 16.756 13.6312 17.404 13.6312ZM15.568 15.8812C15.568 16.8532 15.808 17.6032 16.288 18.1312C16.768 18.6472 17.488 18.9592 18.448 19.0672C18.508 18.7432 18.538 18.4492 18.538 18.1852C18.538 17.2132 18.298 16.4692 17.818 15.9532C17.338 15.4372 16.618 15.1192 15.658 14.9992C15.598 15.3232 15.568 15.6172 15.568 15.8812Z" fill="#414141"/>
</g>
</g>
<defs>
<filter id="filter0_d" x="0" y="0.61673" width="28" height="28" filterUnits="userSpaceOnUse" color-interpolation-filters="sRGB">
<feFlood flood-opacity="0" result="BackgroundImageFix"/>
<feColorMatrix in="SourceAlpha" type="matrix" values="0 0 0 0 0 0 0 0 0 0 0 0 0 0 0 0 0 0 127 0"/>
<feOffset/>
<feGaussianBlur stdDeviation="0.75"/>
<feColorMatrix type="matrix" values="0 0 0 0 0 0 0 0 0 0 0 0 0 0 0 0 0 0 0.1 0"/>
<feBlend mode="normal" in2="BackgroundImageFix" result="effect1_dropShadow"/>
<feBlend mode="normal" in="SourceGraphic" in2="effect1_dropShadow" result="shape"/>
</filter>
<filter id="filter1_d" x="7.12598" y="7.13316" width="13.694" height="13.892" filterUnits="userSpaceOnUse" color-interpolation-filters="sRGB">
<feFlood flood-opacity="0" result="BackgroundImageFix"/>
<feColorMatrix in="SourceAlpha" type="matrix" values="0 0 0 0 0 0 0 0 0 0 0 0 0 0 0 0 0 0 127 0"/>
<feOffset dx="0.5" dy="0.5"/>
<feColorMatrix type="matrix" values="0 0 0 0 0 0 0 0 0 0 0 0 0 0 0 0 0 0 0.25 0"/>
<feBlend mode="normal" in2="BackgroundImageFix" result="effect1_dropShadow"/>
<feBlend mode="normal" in="SourceGraphic" in2="effect1_dropShadow" result="shape"/>
</filter>
</defs>
</svg>
